REM MD5 4e535bcc6b737d845fb02779ae6a9dc4
FILE "Jingle Cats - Love-Para Daisakusen no Maki (Japan) (Demo).bin" BINARY
  TRACK 01 MODE2/2352
    INDEX 01 00:00:00
  TRACK 02 AUDIO
    INDEX 00 06:29:26
    INDEX 01 06:31:26
  TRACK 03 AUDIO
    INDEX 00 08:36:34
    INDEX 01 08:38:34
  TRACK 04 AUDIO
    INDEX 00 10:42:12
    INDEX 01 10:44:12
REM LEADOUT 13:54:12
